<?xml version="1.0" encoding="iso-8859-1"?>
<!-- Uploaded to: SVG Repo, www.svgrepo.com, Generator: SVG Repo Mixer Tools -->
<!DOCTYPE svg PUBLIC "-//W3C//DTD SVG 1.1//EN" "http://www.w3.org/Graphics/SVG/1.1/DTD/svg11.dtd">
<svg fill="#000000" version="1.1" id="Capa_1" xmlns="http://www.w3.org/2000/svg" xmlns:xlink="http://www.w3.org/1999/xlink" 
	 width="800px" height="800px" viewBox="0 0 270.56 270.559"
	 xml:space="preserve">
<g>
	<path d="M52.71,174.731c0,4.182,2.3,8.008,5.996,9.975c1.09,0.579,2.397,0.548,3.451-0.085c1.056-0.637,1.701-1.772,1.701-3.005
		v-3.709h0.301v3.709c0,1.232,0.645,2.372,1.699,3.005c0.554,0.328,1.177,0.499,1.805,0.499c0.564,0,1.131-0.137,1.646-0.41
		c3.698-1.971,5.998-5.79,5.998-9.979c0-2.943-1.119-5.695-3.116-7.782v-2.382c1.217,0.561,2.555,0.896,3.966,0.951l22.273,4.993
		c0.375,0.085,0.782,0.085,1.181,0.023c4.149,0.466,8.372-1.711,10.369-5.403l0.918-1.64l8.506,19.571l-12.973,11.085
		c-0.558,0.41-1.087,0.855-1.567,1.338c-0.041,0.041-0.084,0.086-0.125,0.134c-2.32,2.409-3.593,5.561-3.593,8.904
		c0,1.417,2.416,11.341,7.181,29.509l-9.164,3.419c-0.757,0.287-1.392,0.818-1.797,1.513c-1.444,1.226-2.331,3.046-2.331,4.996
		c0,4.381,5.795,6.365,7.558,6.365c0.056,0,0.113,0,0.169-0.007l17.412,0.473c0.532,0.075,1.073,0.123,1.629,0.123
		c0.537,0,1.066-0.045,1.588-0.116h0.673c0.012,0,0.022,0,0.036,0c0.782,0.044,1.622-0.28,2.231-0.767
		c4.514-1.824,7.553-6.235,7.553-11.197c0-0.144-0.003-0.284-0.007-0.425c0.053-0.239,0.077-0.485,0.077-0.746
		c0-0.581-0.144-1.136-0.4-1.622c-0.185-0.773-0.448-1.536-0.787-2.269l-7.683-22.72c0.007-0.007,0.012-0.021,0.019-0.027
		l12.412-11.245l1.733,8.713c0.04,0.185,0.093,0.369,0.159,0.548c1.297,3.456,4.018,6.193,7.3,7.433l27.74,12.2v12.504
		c0,0.688,0.235,1.335,0.63,1.879c0.886,2.601,3.322,4.415,6.187,4.415c2.905,0,5.321-2.618,6.502-4.175
		c0.206-0.274,0.37-0.575,0.489-0.897l6.133-16.474c0.564-1.027,0.976-2.122,1.219-3.275l0.058-0.15
		c0.182-0.496,0.233-1.017,0.179-1.529c0.02-0.281,0.033-0.562,0.033-0.85c0-3.452-1.481-6.611-3.873-8.836
		c0.54-0.167,1.057-0.417,1.468-0.828l29.15-29.149c1.372-1.369,1.372-3.587,0-4.956l-13.843-13.846
		c-0.004-0.003-0.004-0.007-0.007-0.01c-0.004-0.004-0.007-0.004-0.011-0.007l-9.712-9.709c-1.314-1.314-3.642-1.314-4.955,0
		l-10.068,10.067c-0.349-2.737-1.684-5.229-3.843-6.905l-21.2-17.604c-1.537-1.581-3.528-2.642-5.678-3.032
		c-0.075-0.022-0.15-0.046-0.226-0.063l-23.144-5.927c-1.906-0.857-3.932-1.369-6.025-1.523c-0.221-0.036-0.441-0.036-0.662-0.043
		c-1.145-0.067-2.281,0.033-3.409,0.207c3.79-3.291,6.244-8.088,6.244-13.492c0-9.885-8.042-17.932-17.927-17.932
		c-8.687,0-15.942,6.213-17.578,14.428h-0.751c-1.934,0-3.504,1.569-3.504,3.504c0,1.935,1.571,3.504,3.504,3.504h0.751
		c1.636,8.215,8.891,14.432,17.578,14.432c0.941,0,1.846-0.137,2.746-0.277c-1.418,1.227-2.681,2.646-3.665,4.277l-9.864,12.991
		l-17.525-4.374c-0.368-0.123-1.708-0.438-1.708-0.438c-0.361-0.089-0.726-0.103-1.071-0.075c-1.752-0.068-3.4,0.335-4.889,1.029
		v-5.608c1.997-2.088,3.114-4.841,3.114-7.789c0-4.184-2.298-8.008-5.996-9.974c-1.09-0.577-2.397-0.546-3.448,0.092
		c-1.054,0.633-1.699,1.772-1.699,3.003v3.136h-0.291v-3.136c0-1.23-0.645-2.37-1.701-3.003c-1.054-0.635-2.368-0.666-3.451-0.089
		c-3.699,1.972-5.996,5.791-5.996,9.974c0,2.948,1.117,5.702,3.119,7.792v27.021C53.828,169.029,52.71,171.781,52.71,174.731z
		 M215.198,178.824L191,203.018l-8.897-8.897l9.705-9.705c0.605,0.424,1.279,0.698,1.984,0.698c0.896,0,1.794-0.343,2.481-1.027
		c1.222-1.225,1.29-3.094,0.325-4.462l9.705-9.702L215.198,178.824z M164.95,186.882l21.396,21.399l-23.732-10.603l-7.833-24.626
		c-0.049-0.144-0.1-0.28-0.161-0.417l-8.121-17.45l0.452,0.093l19.738,16.769c1.585,1.403,3.542,2.259,5.613,2.525l-7.354,7.354
		C163.581,183.299,163.581,185.51,164.95,186.882z M196.581,160.207l4.764,4.764l-12.09,12.087
		c-0.004,0.007-0.007,0.007-0.011,0.007c-0.003,0.007-0.003,0.011-0.007,0.014l-12.09,12.088l-4.764-4.761L196.581,160.207z
		 M108.17,103.536c4.786,0,8.819,3.12,10.292,7.419H97.878C99.346,106.655,103.375,103.536,108.17,103.536z M108.17,125.386
		c-4.791,0-8.828-3.123-10.295-7.423h20.584C116.989,122.264,112.956,125.386,108.17,125.386z M76.967,151.514
		c0.049,0.007,0.096,0.014,0.147,0.018c0.26,0.064,0.568,0.144,0.806,0.216l20.009,5.003c1.36,0.339,2.794-0.164,3.641-1.283
		l11.182-14.732c0.147-0.171,0.284-0.356,0.4-0.555c1.953-3.36,5.568-5.448,9.437-5.448l0.588,0.031c0.026,0,0.05,0,0.074,0.003
		c1.398,0.081,2.751,0.428,4.012,1.023c0.204,0.1,0.418,0.175,0.635,0.229l23.124,5.917c0.284,0.116,0.582,0.195,0.886,0.236
		c0.805,0.103,1.551,0.492,2.115,1.102c0.103,0.109,0.216,0.219,0.335,0.314l21.45,17.81c0.873,0.681,1.373,1.693,1.373,2.778
		c0,1.938-1.578,3.512-3.512,3.512c-1.092,0-1.868-0.482-2.378-0.935l-20.475-17.395c-0.445-0.377-0.982-0.644-1.554-0.76
		l-8.169-1.704c-1.292-0.268-2.634,0.219-3.462,1.252c-0.823,1.033-0.99,2.45-0.431,3.655l10.973,23.585l8.244,25.906
		c0.301,0.947,0.999,1.731,1.91,2.135l25.666,11.468c0.246,0.106,0.506,0.192,0.77,0.243c2.389,0.452,4.113,2.546,4.113,4.969
		c0,0.233-0.023,0.459-0.055,0.685c-0.007,0.062-0.014,0.116-0.021,0.171c-0.003,0.027-0.01,0.049-0.014,0.076
		c-0.106,0.571-0.308,1.108-0.596,1.602c-0.105,0.178-0.194,0.362-0.267,0.554l-6.029,16.201c-0.134,0.15-0.281,0.308-0.428,0.458
		c0,0-0.004-0.007-0.008-0.014v-13.456c0-1.39-0.821-2.648-2.098-3.21l-29.998-13.188c-1.485-0.562-2.68-1.712-3.303-3.176
		l-2.765-13.881c-0.024-0.869-0.438-1.718-1.017-2.405c-0.78-0.928-2.216-1.358-3.412-1.174c-1.297,0.185-2.357,1.074-2.793,2.279
		l-16.109,14.592c-0.312,0.28-0.571,0.616-0.76,0.989c-0.2,0.39-0.435,0.742-0.694,1.058c-0.777,0.938-1.017,2.21-0.623,3.36
		l8.309,24.581c0.048,0.141,0.104,0.277,0.167,0.414c0.197,0.404,0.337,0.821,0.421,1.239c0.003,0.027,0.01,0.055,0.014,0.082
		c0.003,0.058,0.01,0.116,0.021,0.178c0.033,0.232,0.06,0.469,0.06,0.712c0,2.293-1.548,4.305-3.771,4.894
		c-0.081,0.021-0.161,0.048-0.238,0.075c-0.083,0.007-0.167,0.018-0.251,0.031c-0.527,0.078-1.083,0.078-1.602,0
		c-0.147-0.021-0.291-0.034-0.438-0.038l-17.109-0.466l10.282-3.832c1.686-0.634,2.622-2.437,2.163-4.182
		c-3.604-13.672-7.55-29.198-7.755-30.79c0-1.543,0.599-2.994,1.689-4.103c0.027-0.027,0.055-0.055,0.081-0.082
		c0.2-0.192,0.438-0.384,0.847-0.691l15.153-12.939c1.17-1.003,1.552-2.652,0.939-4.062l-12.359-28.441
		c-0.53-1.222-1.708-2.036-3.039-2.101c-1.318-0.072-2.585,0.626-3.234,1.789l-4.393,7.861c-0.724,1.341-2.351,2.05-3.783,1.769
		c-0.291-0.062-0.601-0.062-0.916-0.03l-21.792-4.884c-0.253-0.058-0.508-0.089-0.769-0.089c-1.937,0-3.514-1.574-3.514-3.511
		C73.074,152.938,74.953,151.264,76.967,151.514z M66.791,135.396c-0.07,0.062-0.141,0.116-0.21,0.171
		c-0.876,0.661-1.391,1.697-1.391,2.793v30.143c0,0.896,0.344,1.752,0.946,2.396h-4.237c0.602-0.647,0.946-1.499,0.946-2.396V138.36
		c0-1.096-0.515-2.132-1.391-2.793c-0.074-0.055-0.144-0.109-0.21-0.171H66.791z"/>
	<path d="M5.259,131.533c1.167,0,2.344-0.389,3.323-1.186l23.622-19.308V231.25c0,2.902,2.351,5.257,5.256,5.257
		c2.906,0,5.256-2.354,5.256-5.257V102.446l86.742-70.895l95.99,71.569v128.127c0,2.905,2.352,5.257,5.257,5.257
		s5.256-2.352,5.256-5.257V110.958l26.197,19.532c0.944,0.705,2.043,1.042,3.142,1.042c1.604,0,3.186-0.729,4.219-2.117
		c1.735-2.327,1.253-5.621-1.074-7.356l-33.301-24.831c-0.678-1.073-1.738-1.869-2.987-2.229l-99.698-74.333
		c-0.101-0.074-0.214-0.123-0.315-0.188c-0.161-0.103-0.322-0.21-0.495-0.294c-0.147-0.074-0.304-0.13-0.458-0.19
		c-0.161-0.063-0.322-0.126-0.491-0.171c-0.165-0.046-0.332-0.07-0.501-0.099c-0.165-0.027-0.332-0.06-0.5-0.074
		c-0.163-0.01-0.324-0.003-0.484,0c-0.18,0.004-0.354,0.004-0.532,0.026c-0.15,0.017-0.301,0.055-0.454,0.084
		c-0.178,0.038-0.361,0.073-0.536,0.133c-0.154,0.048-0.301,0.118-0.448,0.182c-0.161,0.07-0.321,0.133-0.477,0.221
		c-0.161,0.087-0.312,0.2-0.465,0.308c-0.101,0.074-0.218,0.127-0.315,0.21L87.161,52.545V41.104c0-2.905-2.351-5.256-5.256-5.256
		H53.898c-2.904,0-5.256,2.351-5.256,5.256v42.924L1.929,122.207c-2.248,1.836-2.578,5.149-0.742,7.397
		C2.223,130.874,3.734,131.533,5.259,131.533z M59.154,46.357h17.494v14.776L59.154,75.431V46.357z"/>
</g>
</svg>